<svg width="390" height="39" viewBox="0 0 390 39" fill="none" xmlns="http://www.w3.org/2000/svg">
<path d="M373 38.114V34H377.62V38.114H373Z" fill="#F13024"/>
<path d="M32.65 38V23.35C32.65 22.4833 32.5417 21.7417 32.325 21.125C32.125 20.4917 31.775 20.0083 31.275 19.675C30.7917 19.3417 30.1167 19.175 29.25 19.175C28.5167 19.175 27.875 19.3167 27.325 19.6C26.775 19.8667 26.3167 20.2417 25.95 20.725C25.5833 21.1917 25.3083 21.725 25.125 22.325L24.4 18.75H25.075C25.3417 17.65 25.7667 16.6583 26.35 15.775C26.9333 14.875 27.7417 14.1667 28.775 13.65C29.8083 13.1167 31.1333 12.85 32.75 12.85C34.5 12.85 35.925 13.2 37.025 13.9C38.1417 14.5833 38.9667 15.6167 39.5 17C40.0333 18.3667 40.3 20.075 40.3 22.125V38H32.65ZM2.55 38V13.425H10.15L9.9 20.05L10.2 20.3V38H2.55ZM17.6 38V23.35C17.6 22.4833 17.4917 21.7417 17.275 21.125C17.075 20.4917 16.725 20.0083 16.225 19.675C15.725 19.3417 15.05 19.175 14.2 19.175C13.45 19.175 12.8 19.3167 12.25 19.6C11.7 19.8667 11.2417 20.2417 10.875 20.725C10.525 21.1917 10.2583 21.725 10.075 22.325L8.9 18.75H10.2C10.45 17.6333 10.8583 16.6333 11.425 15.75C12.0083 14.8667 12.8083 14.1667 13.825 13.65C14.8417 13.1167 16.125 12.85 17.675 12.85C19.9583 12.85 21.675 13.4417 22.825 14.625C23.9917 15.7917 24.725 17.4917 25.025 19.725C25.075 20.0583 25.125 20.4667 25.175 20.95C25.225 21.4333 25.25 21.8667 25.25 22.25V38H17.6ZM52.602 13.425V27.875C52.602 28.775 52.7186 29.5583 52.952 30.225C53.1853 30.875 53.577 31.3833 54.127 31.75C54.677 32.1 55.427 32.275 56.377 32.275C57.177 32.275 57.8686 32.1333 58.452 31.85C59.052 31.5667 59.552 31.1833 59.952 30.7C60.3686 30.2167 60.677 29.6833 60.877 29.1L62.052 32.675H60.752C60.4853 33.775 60.0436 34.775 59.427 35.675C58.827 36.575 57.9936 37.2833 56.927 37.8C55.877 38.3167 54.527 38.575 52.877 38.575C51.0603 38.575 49.5603 38.225 48.377 37.525C47.2103 36.8083 46.3436 35.75 45.777 34.35C45.227 32.95 44.952 31.2 44.952 29.1V13.425H52.602ZM68.402 13.425V38H60.802L61.052 31.85L60.752 31.15V13.425H68.402ZM89.2973 38V23.55C89.2973 22.65 89.1806 21.875 88.9473 21.225C88.7139 20.5583 88.3223 20.05 87.7723 19.7C87.2389 19.35 86.4889 19.175 85.5223 19.175C84.7389 19.175 84.0473 19.3167 83.4473 19.6C82.8473 19.8667 82.3473 20.2417 81.9473 20.725C81.5639 21.1917 81.2639 21.725 81.0473 22.325L79.4973 18.75H81.2723C81.5223 17.6333 81.9473 16.6333 82.5473 15.75C83.1473 14.8667 83.9723 14.1667 85.0223 13.65C86.0889 13.1167 87.4223 12.85 89.0223 12.85C90.8556 12.85 92.3556 13.2083 93.5223 13.925C94.6889 14.625 95.5473 15.675 96.0973 17.075C96.6639 18.475 96.9473 20.225 96.9473 22.325V38H89.2973ZM73.4973 38V4.975H81.0973V12.325L80.9723 20.425L81.1473 21.025V38H73.4973ZM115.893 38L116.118 31.85L115.943 31.475V23.8L115.893 22.8C115.893 21.4333 115.493 20.425 114.693 19.775C113.893 19.125 112.551 18.8 110.668 18.8C109.018 18.8 107.451 19.0083 105.968 19.425C104.484 19.8417 103.084 20.3167 101.768 20.85L102.418 14.925C103.201 14.5583 104.076 14.2167 105.043 13.9C106.026 13.5667 107.109 13.3 108.293 13.1C109.476 12.9 110.743 12.8 112.093 12.8C114.243 12.8 116.043 13.05 117.493 13.55C118.943 14.05 120.101 14.7583 120.968 15.675C121.834 16.5917 122.459 17.6917 122.843 18.975C123.226 20.2417 123.418 21.6417 123.418 23.175V38H115.893ZM108.068 38.575C105.618 38.575 103.759 37.9583 102.493 36.725C101.226 35.4917 100.593 33.7333 100.593 31.45V30.775C100.593 28.3583 101.334 26.575 102.818 25.425C104.318 24.2583 106.693 23.4667 109.943 23.05L116.543 22.175L116.993 26.775L111.143 27.625C109.959 27.775 109.126 28.05 108.643 28.45C108.159 28.85 107.918 29.4417 107.918 30.225V30.4C107.918 31.15 108.159 31.75 108.643 32.2C109.126 32.6333 109.901 32.85 110.968 32.85C111.901 32.85 112.701 32.7083 113.368 32.425C114.051 32.1417 114.609 31.775 115.043 31.325C115.476 30.8583 115.801 30.3417 116.018 29.775L117.093 32.875H115.843C115.576 33.9417 115.159 34.9083 114.593 35.775C114.043 36.6417 113.243 37.325 112.193 37.825C111.143 38.325 109.768 38.575 108.068 38.575ZM158.285 38V23.35C158.285 22.4833 158.176 21.7417 157.96 21.125C157.76 20.4917 157.41 20.0083 156.91 19.675C156.426 19.3417 155.751 19.175 154.885 19.175C154.151 19.175 153.51 19.3167 152.96 19.6C152.41 19.8667 151.951 20.2417 151.585 20.725C151.218 21.1917 150.943 21.725 150.76 22.325L150.035 18.75H150.71C150.976 17.65 151.401 16.6583 151.985 15.775C152.568 14.875 153.376 14.1667 154.41 13.65C155.443 13.1167 156.768 12.85 158.385 12.85C160.135 12.85 161.56 13.2 162.66 13.9C163.776 14.5833 164.601 15.6167 165.135 17C165.668 18.3667 165.935 20.075 165.935 22.125V38H158.285ZM128.185 38V13.425H135.785L135.535 20.05L135.835 20.3V38H128.185ZM143.235 38V23.35C143.235 22.4833 143.126 21.7417 142.91 21.125C142.71 20.4917 142.36 20.0083 141.86 19.675C141.36 19.3417 140.685 19.175 139.835 19.175C139.085 19.175 138.435 19.3167 137.885 19.6C137.335 19.8667 136.876 20.2417 136.51 20.725C136.16 21.1917 135.893 21.725 135.71 22.325L134.535 18.75H135.835C136.085 17.6333 136.493 16.6333 137.06 15.75C137.643 14.8667 138.443 14.1667 139.46 13.65C140.476 13.1167 141.76 12.85 143.31 12.85C145.593 12.85 147.31 13.4417 148.46 14.625C149.626 15.7917 150.36 17.4917 150.66 19.725C150.71 20.0583 150.76 20.4667 150.81 20.95C150.86 21.4333 150.885 21.8667 150.885 22.25V38H143.235ZM184.887 38L185.112 31.85L184.937 31.475V23.8L184.887 22.8C184.887 21.4333 184.487 20.425 183.687 19.775C182.887 19.125 181.545 18.8 179.662 18.8C178.012 18.8 176.445 19.0083 174.962 19.425C173.478 19.8417 172.078 20.3167 170.762 20.85L171.412 14.925C172.195 14.5583 173.07 14.2167 174.037 13.9C175.02 13.5667 176.103 13.3 177.287 13.1C178.47 12.9 179.737 12.8 181.087 12.8C183.237 12.8 185.037 13.05 186.487 13.55C187.937 14.05 189.095 14.7583 189.962 15.675C190.828 16.5917 191.453 17.6917 191.837 18.975C192.22 20.2417 192.412 21.6417 192.412 23.175V38H184.887ZM177.062 38.575C174.612 38.575 172.753 37.9583 171.487 36.725C170.22 35.4917 169.587 33.7333 169.587 31.45V30.775C169.587 28.3583 170.328 26.575 171.812 25.425C173.312 24.2583 175.687 23.4667 178.937 23.05L185.537 22.175L185.987 26.775L180.137 27.625C178.953 27.775 178.12 28.05 177.637 28.45C177.153 28.85 176.912 29.4417 176.912 30.225V30.4C176.912 31.15 177.153 31.75 177.637 32.2C178.12 32.6333 178.895 32.85 179.962 32.85C180.895 32.85 181.695 32.7083 182.362 32.425C183.045 32.1417 183.603 31.775 184.037 31.325C184.47 30.8583 184.795 30.3417 185.012 29.775L186.087 32.875H184.837C184.57 33.9417 184.153 34.9083 183.587 35.775C183.037 36.6417 182.237 37.325 181.187 37.825C180.137 38.325 178.762 38.575 177.062 38.575ZM205.104 38.575C202.237 38.575 200.062 37.6333 198.579 35.75C197.112 33.8667 196.379 31.0667 196.379 27.35V24.325C196.379 20.5417 197.121 17.6833 198.604 15.75C200.087 13.8167 202.329 12.85 205.329 12.85C206.796 12.85 208.021 13.0917 209.004 13.575C209.987 14.0583 210.771 14.7417 211.354 15.625C211.954 16.5083 212.371 17.55 212.604 18.75H214.679L212.879 23.7C212.846 22.6833 212.646 21.825 212.279 21.125C211.912 20.425 211.396 19.8917 210.729 19.525C210.079 19.1417 209.287 18.95 208.354 18.95C206.954 18.95 205.887 19.3583 205.154 20.175C204.421 20.9917 204.054 22.2167 204.054 23.85V27.375C204.054 28.9917 204.421 30.2167 205.154 31.05C205.904 31.8667 207.004 32.275 208.454 32.275C209.221 32.275 209.904 32.1333 210.504 31.85C211.121 31.5667 211.637 31.175 212.054 30.675C212.487 30.175 212.804 29.6083 213.004 28.975L214.879 32.675H212.729C212.479 33.775 212.062 34.775 211.479 35.675C210.896 36.575 210.087 37.2833 209.054 37.8C208.021 38.3167 206.704 38.575 205.104 38.575ZM212.779 38L213.004 31.775L212.879 30.475V20.525V19.45L212.779 12.325V4.975H220.379V38H212.779Z" fill="white"/>
<path d="M244.158 4.225C245.375 4.225 246.441 4.34167 247.358 4.575C248.291 4.79166 249.175 5.075 250.008 5.425L250.233 7.075C249.316 6.74166 248.416 6.46666 247.533 6.25C246.666 6.03333 245.683 5.925 244.583 5.925C243.166 5.925 242.016 6.125 241.133 6.525C240.266 6.90833 239.641 7.46667 239.258 8.2C238.875 8.91667 238.683 9.78333 238.683 10.8V10.925C238.683 11.6583 238.758 12.35 238.908 13C239.075 13.6333 239.25 14.2083 239.433 14.725L237.983 14.825V14.55C237.683 14.0833 237.4 13.4917 237.133 12.775C236.866 12.0417 236.733 11.25 236.733 10.4V10.275C236.733 8.425 237.325 6.95833 238.508 5.875C239.691 4.775 241.575 4.225 244.158 4.225ZM237.558 38V15.25H239.508V38H237.558ZM233.108 16.1V14.475H238.308H239.058H250.058L249.833 16.1H233.108ZM268.927 38L269.052 31.75L268.952 31.425V23.5L268.977 21.6C268.977 19.3833 268.418 17.7083 267.302 16.575C266.185 15.4417 264.443 14.875 262.077 14.875C260.277 14.875 258.652 15.1583 257.202 15.725C255.768 16.2917 254.535 16.9333 253.502 17.65L253.727 15.8C254.277 15.4 254.96 15 255.777 14.6C256.61 14.1833 257.568 13.8417 258.652 13.575C259.735 13.3083 260.952 13.175 262.302 13.175C263.802 13.175 265.093 13.3667 266.177 13.75C267.277 14.1333 268.177 14.6917 268.877 15.425C269.577 16.1417 270.093 17.0167 270.427 18.05C270.76 19.0833 270.927 20.2583 270.927 21.575V38H268.927ZM260.252 38.5C257.835 38.5 255.968 37.9333 254.652 36.8C253.352 35.65 252.702 33.9833 252.702 31.8V31.175C252.702 29.1417 253.335 27.5917 254.602 26.525C255.868 25.4417 257.952 24.6917 260.852 24.275L269.427 23L269.527 24.55L261.127 25.775C258.843 26.1083 257.193 26.6833 256.177 27.5C255.177 28.3167 254.677 29.5083 254.677 31.075V31.6C254.677 33.3 255.193 34.5917 256.227 35.475C257.26 36.3583 258.768 36.8 260.752 36.8C262.368 36.8 263.752 36.5 264.902 35.9C266.068 35.2833 267.002 34.4583 267.702 33.425C268.418 32.375 268.885 31.2 269.102 29.9L269.627 31.45H269.177C269.01 32.6833 268.577 33.8417 267.877 34.925C267.177 35.9917 266.193 36.8583 264.927 37.525C263.66 38.175 262.102 38.5 260.252 38.5ZM279.954 22.75L279.304 21.3L279.829 21.125C280.379 18.725 281.404 16.825 282.904 15.425C284.404 14.025 286.287 13.325 288.554 13.325C289.204 13.325 289.779 13.3833 290.279 13.5C290.779 13.6 291.204 13.7167 291.554 13.85L291.679 15.8C291.262 15.6167 290.779 15.475 290.229 15.375C289.679 15.275 289.079 15.225 288.429 15.225C286.445 15.225 284.704 15.8583 283.204 17.125C281.704 18.3917 280.62 20.2667 279.954 22.75ZM278.129 38V13.675H280.079L279.929 21.1L280.104 21.275V38H278.129ZM312.941 38V22.6C312.941 21 312.725 19.625 312.291 18.475C311.858 17.325 311.15 16.4417 310.166 15.825C309.183 15.1917 307.866 14.875 306.216 14.875C304.683 14.875 303.35 15.175 302.216 15.775C301.1 16.375 300.2 17.1917 299.516 18.225C298.85 19.2583 298.4 20.45 298.166 21.8L297.491 20.2H298.091C298.275 18.9333 298.716 17.7667 299.416 16.7C300.133 15.6333 301.1 14.7833 302.316 14.15C303.55 13.5 305.033 13.175 306.766 13.175C308.75 13.175 310.333 13.55 311.516 14.3C312.716 15.0333 313.583 16.0917 314.116 17.475C314.65 18.8417 314.916 20.4917 314.916 22.425V38H312.941ZM296.341 38V4.8H298.316V13.075L298.216 20.05L298.316 20.25V38H296.341ZM336.847 38L336.972 31.75L336.872 31.425V23.5L336.897 21.6C336.897 19.3833 336.338 17.7083 335.222 16.575C334.105 15.4417 332.363 14.875 329.997 14.875C328.197 14.875 326.572 15.1583 325.122 15.725C323.688 16.2917 322.455 16.9333 321.422 17.65L321.647 15.8C322.197 15.4 322.88 15 323.697 14.6C324.53 14.1833 325.488 13.8417 326.572 13.575C327.655 13.3083 328.872 13.175 330.222 13.175C331.722 13.175 333.013 13.3667 334.097 13.75C335.197 14.1333 336.097 14.6917 336.797 15.425C337.497 16.1417 338.013 17.0167 338.347 18.05C338.68 19.0833 338.847 20.2583 338.847 21.575V38H336.847ZM328.172 38.5C325.755 38.5 323.888 37.9333 322.572 36.8C321.272 35.65 320.622 33.9833 320.622 31.8V31.175C320.622 29.1417 321.255 27.5917 322.522 26.525C323.788 25.4417 325.872 24.6917 328.772 24.275L337.347 23L337.447 24.55L329.047 25.775C326.763 26.1083 325.113 26.6833 324.097 27.5C323.097 28.3167 322.597 29.5083 322.597 31.075V31.6C322.597 33.3 323.113 34.5917 324.147 35.475C325.18 36.3583 326.688 36.8 328.672 36.8C330.288 36.8 331.672 36.5 332.822 35.9C333.988 35.2833 334.922 34.4583 335.622 33.425C336.338 32.375 336.805 31.2 337.022 29.9L337.547 31.45H337.097C336.93 32.6833 336.497 33.8417 335.797 34.925C335.097 35.9917 334.113 36.8583 332.847 37.525C331.58 38.175 330.022 38.5 328.172 38.5ZM362.648 38V22.6C362.648 21 362.432 19.625 361.998 18.475C361.565 17.325 360.857 16.4417 359.873 15.825C358.89 15.1917 357.573 14.875 355.923 14.875C354.407 14.875 353.082 15.175 351.948 15.775C350.815 16.375 349.907 17.2 349.223 18.25C348.54 19.2833 348.082 20.4667 347.848 21.8L347.298 20.2H347.798C347.982 18.9333 348.423 17.7667 349.123 16.7C349.823 15.6333 350.79 14.7833 352.023 14.15C353.257 13.5 354.74 13.175 356.473 13.175C358.457 13.175 360.04 13.55 361.223 14.3C362.423 15.0333 363.29 16.0917 363.823 17.475C364.357 18.8417 364.623 20.4917 364.623 22.425V38H362.648ZM346.048 38V13.675H348.023L347.898 19.875L348.023 19.95V38H346.048Z" fill="white"/>
</svg>
